<svg width="135" height="36" viewBox="0 0 135 36" fill="none" xmlns="http://www.w3.org/2000/svg">
<path d="M1.71055 13.79V9.88H18.7106V13.79H12.2506V33H8.17055V13.79H1.71055ZM32.9156 32.014C31.737 32.49 30.6263 32.83 29.5836 33.034C28.541 33.238 27.555 33.34 26.6256 33.34C24.0643 33.34 22.1263 32.6147 20.8116 31.164C19.497 29.7133 18.8396 27.7867 18.8396 25.384V23.344C18.8396 21.7347 19.1343 20.3407 19.7236 19.162C20.313 17.9833 21.1516 17.0653 22.2396 16.408C23.3276 15.7507 24.6083 15.422 26.0816 15.422C27.283 15.422 28.405 15.6713 29.4476 16.17C30.513 16.646 31.3743 17.4053 32.0316 18.448C32.7116 19.468 33.0516 20.7827 33.0516 22.392C33.0516 22.868 33.0176 23.378 32.9496 23.922C32.8816 24.4433 32.7683 24.9987 32.6096 25.588H22.6136C22.659 26.9933 23.0103 28.0473 23.6676 28.75C24.325 29.4527 25.379 29.804 26.8296 29.804C27.6003 29.804 28.3936 29.7133 29.2096 29.532C30.0483 29.3507 30.9096 29.0787 31.7936 28.716L32.9156 32.014ZM26.0816 18.72C25.039 18.72 24.223 19.06 23.6336 19.74C23.067 20.3973 22.7383 21.3493 22.6476 22.596H29.1756C29.1983 22.4827 29.2096 22.3807 29.2096 22.29C29.2096 22.1767 29.2096 22.0747 29.2096 21.984C29.2096 20.896 28.9036 20.08 28.2916 19.536C27.6796 18.992 26.943 18.72 26.0816 18.72ZM50.6121 33.17C49.4561 33.17 48.5268 32.932 47.8241 32.456C47.1441 31.98 46.6455 31.3907 46.3281 30.688C45.3535 31.5947 44.4128 32.2633 43.5061 32.694C42.5995 33.1247 41.6248 33.34 40.5821 33.34C39.0635 33.34 37.9415 32.8527 37.2161 31.878C36.5135 30.9033 36.1621 29.668 36.1621 28.172C36.1621 27.1747 36.3435 26.302 36.7061 25.554C37.0915 24.7833 37.7148 24.1827 38.5761 23.752C39.4375 23.3213 40.6161 23.106 42.1121 23.106C42.7015 23.106 43.3135 23.1513 43.9481 23.242C44.5828 23.31 45.2175 23.4007 45.8521 23.514V21.508C45.8521 20.556 45.5915 19.91 45.0701 19.57C44.5488 19.2073 43.8461 19.026 42.9621 19.026C42.2821 19.026 41.5341 19.1167 40.7181 19.298C39.9248 19.4793 39.0635 19.7627 38.1341 20.148L37.0121 16.816C39.3015 15.8867 41.3755 15.422 43.2341 15.422C44.9115 15.422 46.2035 15.7053 47.1101 16.272C48.0395 16.8387 48.6855 17.5867 49.0481 18.516C49.4108 19.4453 49.5921 20.4427 49.5921 21.508V28.138C49.5921 28.478 49.6828 28.8067 49.8641 29.124C50.0681 29.4187 50.4535 29.566 51.0201 29.566H51.3941V33.17H50.6121ZM39.9361 28.104C39.9361 28.716 40.0721 29.2033 40.3441 29.566C40.6161 29.906 41.0128 30.076 41.5341 30.076C42.0555 30.076 42.6448 29.94 43.3021 29.668C43.9595 29.396 44.8095 28.7613 45.8521 27.764V26.302C44.6735 26.098 43.5175 25.996 42.3841 25.996C41.5001 25.996 40.8655 26.1773 40.4801 26.54C40.1175 26.9027 39.9361 27.424 39.9361 28.104ZM58.6985 21.066V33H54.7885V15.762H58.4945V18.04C59.5599 17.1107 60.5459 16.442 61.4525 16.034C62.3592 15.626 63.2885 15.422 64.2405 15.422C66.3485 15.422 67.7879 16.3513 68.5585 18.21C69.6919 17.2127 70.7459 16.4987 71.7205 16.068C72.6952 15.6373 73.6812 15.422 74.6785 15.422C76.2652 15.422 77.4779 15.9547 78.3165 17.02C79.1552 18.0627 79.5745 19.536 79.5745 21.44V33H75.6645V21.916C75.6645 20.012 74.9392 19.06 73.4885 19.06C72.9219 19.06 72.2985 19.196 71.6185 19.468C70.9385 19.74 70.1112 20.2727 69.1365 21.066V33H65.2265V21.916C65.2265 20.012 64.5012 19.06 63.0505 19.06C62.4839 19.06 61.8605 19.196 61.1805 19.468C60.5005 19.74 59.6732 20.2727 58.6985 21.066Z" fill="white"/>
<path d="M102 7.67354L125.12 7.67354L125.12 14.7115C125.12 16.4342 124.871 17.7942 124.372 18.7915C123.873 19.8115 123.171 20.5369 122.264 20.9675C121.357 21.4209 120.292 21.6475 119.068 21.6475L118.116 21.6475C116.325 21.6475 114.954 20.8769 114.002 19.3355C113.571 20.4235 112.948 21.2509 112.132 21.8175C111.316 22.3842 110.341 22.6675 109.208 22.6675L108.256 22.6675C107.009 22.6675 105.91 22.4409 104.958 21.9875C104.029 21.5342 103.303 20.7862 102.782 19.7435C102.261 18.7009 102 17.3069 102 15.5615L102 7.67354ZM121.38 14.7115L121.38 11.7535L115.6 11.7535L115.6 14.7115C115.6 15.6182 115.804 16.2982 116.212 16.7515C116.643 17.2275 117.221 17.4655 117.946 17.4655L119.068 17.4655C119.793 17.4655 120.36 17.2275 120.768 16.7515C121.176 16.2982 121.38 15.6182 121.38 14.7115ZM111.86 15.5615L111.86 11.7535L105.74 11.7535L105.74 15.5615C105.74 16.5135 105.967 17.2389 106.42 17.7375C106.873 18.2362 107.485 18.4855 108.256 18.4855L109.378 18.4855C110.149 18.4855 110.749 18.2362 111.18 17.7375C111.633 17.2389 111.86 16.5135 111.86 15.5615ZM111.52 33.8562C108.891 33.8562 106.341 33.2782 103.87 32.1222C101.399 30.9889 99.042 29.2662 96.798 26.9542L99.348 24.2342C101.32 26.1835 103.292 27.6002 105.264 28.4842C107.236 29.3909 109.321 29.8442 111.52 29.8442L112.778 29.8442C114.999 29.8442 117.085 29.3909 119.034 28.4842C121.006 27.6002 122.978 26.1835 124.95 24.2342L127.5 26.9542C125.256 29.2662 122.899 30.9889 120.428 32.1222C117.957 33.2782 115.407 33.8562 112.778 33.8562L111.52 33.8562Z" fill="white"/>
</svg>
